<svg width="185" height="27" viewBox="0 0 185 27" fill="none" xmlns="http://www.w3.org/2000/svg">
<path d="M49.6588 20.9323L44.6611 6.56567H48.6389L51.5627 15.999L54.8605 6.56567H57.5124L60.9462 15.999L63.802 6.56567H67.7798L62.8161 20.9323H59.5183L56.2205 11.9323L52.9567 20.9323H49.6588Z" fill="#142D53"/>
<path d="M69.7515 20.9322V6.56553H73.3893V8.49886C74.2732 6.93219 75.6331 6.16553 77.435 6.16553C78.013 6.16553 78.6249 6.26553 79.2029 6.46553L78.8969 10.0322C78.285 9.83219 77.673 9.73219 77.163 9.73219C75.0212 9.73219 73.5932 11.0989 73.5932 14.0989V20.9322H69.7515Z" fill="#142D53"/>
<path d="M91.7486 6.56553H95.3524V20.9322H91.7486V19.2655C90.4906 20.5989 88.9267 21.2655 87.0568 21.2655C84.949 21.2655 83.2151 20.5655 81.8211 19.0989C80.4612 17.6322 79.7812 15.8322 79.7812 13.6655C79.7812 11.4989 80.4952 9.69886 81.8551 8.29886C83.2151 6.86553 84.983 6.16553 87.0568 6.16553C88.8927 6.16553 90.4566 6.86553 91.7486 8.26553V6.56553ZM90.6266 10.8322C89.8447 9.99886 88.8927 9.63219 87.7028 9.63219C86.4789 9.63219 85.5269 10.0322 84.745 10.8322C83.997 11.6655 83.623 12.6322 83.623 13.7655C83.623 14.9322 83.997 15.8989 84.779 16.7322C85.5609 17.5655 86.5129 17.9322 87.7028 17.9322C88.8927 17.9322 89.8447 17.5322 90.6266 16.7322C91.4086 15.8989 91.8166 14.9322 91.8166 13.7655C91.8166 12.5989 91.4086 11.6322 90.6266 10.8322Z" fill="#142D53"/>
<path d="M112.351 8.39897C113.711 9.86564 114.391 11.6323 114.391 13.7656C114.391 15.8656 113.677 17.6656 112.317 19.1323C110.957 20.599 109.224 21.3323 107.15 21.3323C105.348 21.3323 103.818 20.6656 102.56 19.3323V26.899H98.7861V6.56564H102.526V8.33231C103.784 6.89897 105.314 6.19897 107.184 6.19897C109.258 6.19897 110.991 6.93231 112.351 8.39897ZM109.462 16.699C110.209 15.899 110.583 14.9323 110.583 13.7656C110.583 12.599 110.209 11.6323 109.462 10.8323C108.714 10.0323 107.728 9.63231 106.538 9.63231C105.348 9.63231 104.396 10.0323 103.648 10.8323C102.9 11.6323 102.526 12.599 102.526 13.7656C102.526 14.9323 102.9 15.899 103.648 16.699C104.396 17.499 105.382 17.899 106.538 17.899C107.728 17.899 108.714 17.499 109.462 16.699Z" fill="#142D53"/>
<path d="M130.574 8.39893C131.968 9.86559 132.682 11.6323 132.682 13.7656C132.682 15.8989 131.968 17.6989 130.574 19.1323C129.18 20.5656 127.413 21.2656 125.339 21.2656C123.469 21.2656 121.973 20.5656 120.749 19.1323V20.9323H117.077V0.898926H120.885V8.23226C122.109 6.89893 123.571 6.19893 125.339 6.19893C127.413 6.19893 129.18 6.93226 130.574 8.39893ZM121.871 16.6989C122.619 17.4989 123.605 17.8989 124.761 17.8989C125.917 17.8989 126.903 17.4989 127.651 16.6989C128.399 15.8656 128.773 14.8989 128.773 13.7323C128.773 12.5656 128.399 11.5989 127.651 10.7989C126.903 9.99893 125.917 9.59893 124.761 9.59893C123.605 9.59893 122.619 9.99893 121.871 10.7989C121.123 11.5989 120.749 12.5656 120.749 13.6989C120.715 14.8989 121.123 15.8989 121.871 16.6989Z" fill="#142D53"/>
<path d="M136.762 8.39897C138.258 6.93231 140.127 6.19897 142.405 6.19897C144.683 6.19897 146.587 6.93231 148.049 8.39897C149.545 9.86564 150.259 11.6323 150.259 13.7656C150.259 15.899 149.545 17.699 148.049 19.1323C146.553 20.599 144.683 21.3323 142.405 21.3323C140.127 21.3323 138.224 20.599 136.762 19.1323C135.266 17.6656 134.552 15.899 134.552 13.7656C134.552 11.6323 135.3 9.83231 136.762 8.39897ZM142.405 17.8656C143.561 17.8656 144.513 17.4656 145.295 16.6656C146.077 15.8323 146.485 14.8656 146.485 13.7323C146.485 12.599 146.077 11.6323 145.295 10.8323C144.513 10.0323 143.561 9.63231 142.405 9.63231C141.249 9.63231 140.263 10.0323 139.515 10.8323C138.734 11.6323 138.36 12.599 138.36 13.7323C138.36 14.8656 138.734 15.8323 139.515 16.6656C140.297 17.4656 141.249 17.8656 142.405 17.8656Z" fill="#142D53"/>
<path d="M154.373 8.39897C155.869 6.93231 157.739 6.19897 160.017 6.19897C162.295 6.19897 164.198 6.93231 165.66 8.39897C167.156 9.86564 167.87 11.6323 167.87 13.7656C167.87 15.899 167.156 17.699 165.66 19.1323C164.164 20.599 162.295 21.3323 160.017 21.3323C157.739 21.3323 155.835 20.599 154.373 19.1323C152.877 17.6656 152.163 15.899 152.163 13.7656C152.163 11.6323 152.877 9.83231 154.373 8.39897ZM160.017 17.8656C161.173 17.8656 162.125 17.4656 162.906 16.6656C163.688 15.8323 164.096 14.8656 164.096 13.7323C164.096 12.599 163.688 11.6323 162.906 10.8323C162.125 10.0323 161.173 9.63231 160.017 9.63231C158.861 9.63231 157.875 10.0323 157.127 10.8323C156.345 11.6323 155.971 12.599 155.971 13.7323C155.971 14.8656 156.345 15.8323 157.127 16.6656C157.875 17.4656 158.861 17.8656 160.017 17.8656Z" fill="#142D53"/>
<path d="M180.177 20.9323L175.35 14.7989L174.364 15.6656V20.9323H170.522V0.898926H174.33V11.4656L179.667 6.56559H184.461L177.934 12.4323L184.835 20.9323H180.177Z" fill="#142D53"/>
<path d="M9.16697 4.86561C8.691 3.93228 7.73905 3.33228 6.68511 3.33228H3.08132C1.41542 3.33228 0.327479 5.03228 1.07544 6.49894L8.11303 20.6656C9.23497 22.9656 11.6148 24.4323 14.2327 24.4323H16.6125C17.6665 24.4323 18.3464 23.3656 17.9045 22.4323L9.16697 4.86561Z" fill="#142D53"/>
<path d="M24.3301 7.56561C23.0382 4.96561 20.3864 3.33228 17.4625 3.33228H15.6266C14.5727 3.33228 13.8927 4.39894 14.3347 5.33228L23.1062 23.0323C23.5142 23.8656 24.3981 24.3989 25.3501 24.3989H29.1239C30.7898 24.3989 31.8777 22.6989 31.1297 21.2323L24.3301 7.56561Z" fill="#142D53"/>
<path d="M33.4076 3.33228H29.0898C28.0359 3.33228 27.3899 4.39894 27.8319 5.29894L29.9738 9.63228C30.4838 10.6656 31.9797 10.6656 32.4896 9.63228L34.6315 5.29894C35.1075 4.39894 34.4275 3.33228 33.4076 3.33228Z" fill="#142D53"/>
</svg>
